<svg xmlns="http://www.w3.org/2000/svg" viewBox="0 0 120 70" width="100%" height="100%">
  <defs>
    <linearGradient id="bodyGrad" x1="0%" y1="0%" x2="0%" y2="100%">
      <stop offset="0%" stop-color="#ff4d4d"/>
      <stop offset="40%" stop-color="#e60000"/>
      <stop offset="100%" stop-color="#b30000"/>
    </linearGradient>
    <linearGradient id="roofGrad" x1="0%" y1="0%" x2="0%" y2="100%">
      <stop offset="0%" stop-color="#ff3333"/>
      <stop offset="100%" stop-color="#e60000"/>
    </linearGradient>
    <linearGradient id="windowGrad" x1="0%" y1="0%" x2="100%" y2="100%">
      <stop offset="0%" stop-color="#7cd1f9"/>
      <stop offset="30%" stop-color="#a3e2ff"/>
      <stop offset="100%" stop-color="#ffffff"/>
    </linearGradient>
    <linearGradient id="wheelGrad" x1="0%" y1="0%" x2="100%" y2="100%">
      <stop offset="0%" stop-color="#4d4d4d"/>
      <stop offset="70%" stop-color="#262626"/>
      <stop offset="100%" stop-color="#1a1a1a"/>
    </linearGradient>
    <linearGradient id="rimGrad" x1="0%" y1="0%" x2="100%" y2="100%">
      <stop offset="0%" stop-color="#ffffff"/>
      <stop offset="60%" stop-color="#cccccc"/>
      <stop offset="100%" stop-color="#999999"/>
    </linearGradient>
    <filter id="shadow" x="-10%" y="-10%" width="120%" height="120%">
      <feDropShadow dx="0" dy="2" stdDeviation="1.5" flood-color="#000" flood-opacity="0.3"/>
    </filter>
  </defs>

  <ellipse cx="60" cy="62" rx="52" ry="5" fill="#000000" opacity="0.25"/>

  <g filter="url(#shadow)">
    <path d="M 25,38 L 40,16 L 82,16 L 94,38 Z" fill="#4d0000"/>

    <path d="M 28,36 L 41,18 L 57,18 L 57,36 Z" fill="url(#windowGrad)"/>
    <path d="M 61,36 L 61,18 L 80,18 L 91,36 Z" fill="url(#windowGrad)"/>
    <rect x="42" y="18" width="15" height="18" fill="url(#windowGrad)" opacity="0.9"/>
    <rect x="57" y="18" width="24" height="18" fill="url(#windowGrad)" opacity="0.9"/>

    <path d="M 38,16 L 84,16 L 82,19 L 42,19 Z" fill="#ffffff" opacity="0.6"/>
    <rect x="57" y="16" width="4" height="22" fill="#e60000"/>

    <path d="M 5,46 
             C 5,42 8,38 15,38 
             L 25,38 
             C 27,34 35,15 42,15 
             L 82,15 
             C 90,15 97,32 100,38 
             L 112,38 
             C 117,38 119,41 119,45 
             L 119,53 
             C 119,57 116,59 112,59 
             L 104,59 
             C 104,53 98,48 91,48 
             C 84,48 78,53 78,59 
             L 42,59 
             C 42,53 36,48 29,48 
             C 22,48 16,53 16,59 
             L 8,59 
             C 6,59 5,57 5,55 
             Z" fill="url(#bodyGrad)"/>

    <path d="M 15,41 L 111,41" stroke="#ff8080" stroke-width="1" stroke-linecap="round" fill="none" opacity="0.5"/>
    <path d="M 8,47 L 114,47" stroke="#990000" stroke-width="1.5" stroke-linecap="round" fill="none" opacity="0.4"/>
    <path d="M 29,39 C 35,22 42,17 44,17" stroke="#ffffff" stroke-width="1" fill="none" opacity="0.4"/>

    <path d="M 112,39 C 116,39 119,42 119,45 C 117,46 114,46 112,44 Z" fill="#ffffcc"/>
    <path d="M 114,40 C 117,40 119,42 119,44" stroke="#ffffff" stroke-width="0.8" fill="none"/>

    <path d="M 5,42 C 5,40 8,40 10,41 L 9,46 C 7,46 5,45 5,42 Z" fill="#ff3333"/>
    <path d="M 5,42 C 5,40 7,40 8,41 L 7,44" stroke="#ff9999" stroke-width="0.5" fill="none"/>

    <rect x="66" y="43" width="7" height="2" rx="1" fill="#ffffff" opacity="0.9"/>
    <rect x="66" y="44" width="7" height="0.7" rx="0.2" fill="#b30000"/>

    <g transform="translate(29, 57)">
      <circle cx="0" cy="0" r="11.5" fill="url(#wheelGrad)"/>
      <circle cx="0" cy="0" r="7.5" fill="url(#rimGrad)"/>
      <circle cx="0" cy="0" r="6.5" fill="#e6e6e6"/>
      <circle cx="0" cy="0" r="2" fill="#666666"/>
      <path d="M -6.5,0 L 6.5,0 M 0,-6.5 L 0,6.5 M -4.5,-4.5 L 4.5,4.5 M -4.5,4.5 L 4.5,-4.5" stroke="#ffffff" stroke-width="0.8" opacity="0.7"/>
      <circle cx="0" cy="0" r="3.5" fill="#cccccc"/>
      <circle cx="0" cy="0" r="1.5" fill="#4d4d4d"/>
    </g>

    <g transform="translate(91, 57)">
      <circle cx="0" cy="0" r="11.5" fill="url(#wheelGrad)"/>
      <circle cx="0" cy="0" r="7.5" fill="url(#rimGrad)"/>
      <circle cx="0" cy="0" r="6.5" fill="#e6e6e6"/>
      <circle cx="0" cy="0" r="2" fill="#666666"/>
      <path d="M -6.5,0 L 6.5,0 M 0,-6.5 L 0,6.5 M -4.5,-4.5 L 4.5,4.5 M -4.5,4.5 L 4.5,-4.5" stroke="#ffffff" stroke-width="0.8" opacity="0.7"/>
      <circle cx="0" cy="0" r="3.5" fill="#cccccc"/>
      <circle cx="0" cy="0" r="1.5" fill="#4d4d4d"/>
    </g>
  </g>
</svg>
